<svg xmlns="http://www.w3.org/2000/svg" width="48" height="48" viewBox="0 0 48 48.000001"><path d="M6.207 41.792L4 39.585l1.114-1.113L6.23 37.36l2.205 2.208 2.207 2.207-1.115 1.113L8.413 44l-2.206-2.208zm5.023-.374c-.21-.062-2.776-2.526-2.776-2.664 0-.03.4-.264.89-.524 2.314-1.226 3.973-2.237 7.196-4.387 4.152-2.77 6.288-3.907 8.347-4.445l.614-.16.364.25c.2.137.518.41.708.604.334.34 1.18 1.558 1.177 1.694 0 .037-.274.242-.606.456-1.7 1.1-4.048 2.866-5.747 4.322-3.633 3.115-5.82 4.43-8.022 4.826-.657.118-1.794.133-2.145.028zm-3.922-3.765c-.593-.61-.632-.672-.727-1.153-.138-.703-.12-2.097.037-2.85.282-1.357.876-2.696 1.823-4.11.777-1.16 1.23-1.682 4.88-5.643 2.57-2.787 3.795-4.293 5.186-6.382 1.765-2.648 3.146-5.54 3.73-7.812.28-1.09.285-1.102.37-.82.17.566.3 1.805.3 2.85 0 2.504-.72 5.557-2.007 8.517-.845 1.94-1.735 3.454-3.423 5.82-1.99 2.792-4.204 6.23-6.282 9.768l-.644 1.095-1.267.682c-.697.375-1.286.682-1.308.682-.022 0-.322-.29-.667-.644zm21.572.195c.227-.59.31-1.234.31-2.44.003-1.17-.017-1.363-.21-2.062-.398-1.428-1.135-2.757-2.044-3.685-.283-.287-.514-.536-.514-.552 0-.077 1.007-.017 1.53.09 1.354.28 2.347.994 3.15 2.263.56.886.73 2.343.4 3.412-.293.95-1.112 2.023-2.133 2.794-.464.35-.57.39-.49.182zm-15.817-2.505c0-.038.19-.25.425-.472.348-.328.475-.4.703-.4.154 0 .28.015.28.034 0 .037-.948.662-1.24.818-.092.05-.167.058-.167.02zm-.678-.386c.357-.6.938-1.55.964-1.58.07-.074.18.202.18.46 0 .22-.075.344-.455.723-.25.25-.516.456-.59.456-.074 0-.12-.027-.1-.058zm2.53-.85c-.03-.03-.055-.177-.055-.328 0-.23.074-.348.456-.73.408-.408.49-.456.777-.456.22 0 .385.055.528.178l.208.178-.82.564c-.888.61-1.01.676-1.094.593zm-1.09-1.05c-.076-.045-.137-.117-.137-.163 0-.118 1.098-1.863 1.172-1.863.034 0 .17.126.304.278.188.213.243.35.243.598 0 .29-.048.37-.457.78-.38.38-.5.454-.722.452-.147 0-.328-.038-.403-.082zm3.15-.573c-.096-.103-.194-.33-.218-.51-.042-.31-.026-.34.423-.788.423-.422.5-.467.796-.467.283 0 .382.05.718.364.31.29.37.384.29.455-.122.108-1.745 1.132-1.796 1.132-.02 0-.115-.084-.212-.188zM15.76 31.19c-.086-.035-.274-.188-.417-.338l-.26-.273.564-.85c.31-.465.595-.88.633-.922.09-.097.832.62.967.934.16.37.06.62-.434 1.09-.465.444-.676.516-1.052.36zm3.346-.334c-.644-.67-.64-.975.015-1.623.386-.382.463-.425.75-.417.29.01.375.065.935.622.34.337.617.637.617.665 0 .058-1.83 1.085-1.933 1.085-.037 0-.21-.15-.386-.332zm2.748-1.15c-.086-.038-.42-.334-.74-.66-.532-.54-.585-.622-.585-.906 0-.277.052-.365.447-.76.395-.396.482-.447.76-.447.29 0 .366.05.957.642.59.59.643.667.643.954 0 .263-.054.366-.35.67-.517.53-.786.65-1.13.505zm-4.297-.463c-.13-.08-.4-.318-.604-.528l-.368-.38.548-.78c.8-1.14.666-1.106 1.416-.37.604.59.646.654.646.957 0 .294-.044.366-.48.786-.53.513-.747.572-1.157.315zm7.11-.557c-.086-.27.054-.537.51-.97.656-.627.915-.59 1.737.247l.45.458-.92.095c-.505.052-1.102.144-1.326.204-.38.1-.41.1-.452-.034zm2.567-1.03c-.866-.838-.895-1.136-.182-1.816.384-.366.5-.434.744-.434.256 0 .36.07.91.608.536.526.625.65.663.94.044.322.032.345-.422.798-.424.425-.497.467-.8.467-.308 0-.378-.044-.913-.563zm-3.427.193c-.22-.05-1.206-1.026-1.333-1.318-.15-.345-.068-.562.383-1.028.653-.674.98-.64 1.78.19.785.81.806 1.02.166 1.666-.437.442-.678.56-.995.49zm-4.22-.407c-.207-.092-1.27-1.184-1.302-1.34-.03-.15.748-1.29.96-1.405.288-.153.572-.01 1.206.633.565.57.617.65.617.937 0 .275-.052.365-.428.74-.44.44-.753.57-1.054.436zm9.484-1.715c-.578-.577-.617-.636-.617-.95 0-.303.042-.376.457-.79.398-.4.494-.457.756-.457.273 0 .36.062.95.65.59.59.65.678.65.95 0 .263-.058.36-.456.758-.415.414-.488.456-.79.456-.315 0-.374-.038-.95-.616zm-4.146-.386c-.575-.574-.61-.63-.61-.95 0-.31.04-.38.466-.806.453-.453.476-.465.798-.422.288.038.414.128.94.664.537.548.607.654.607.91 0 .245-.067.36-.44.752-.413.432-.467.463-.797.463-.337 0-.382-.028-.964-.61zm-3.463.226c-.238-.107-1.19-1.11-1.282-1.353-.112-.3.005-.567.444-1.015.618-.63.96-.586 1.748.228.784.81.804 1.018.165 1.674-.462.474-.76.604-1.074.466zm9.518-1.75c-.59-.588-.65-.676-.65-.95 0-.26.058-.357.457-.755.366-.367.505-.457.707-.457.347 0 .606.154 1.073.64.756.783.776 1.06.12 1.717-.4.398-.495.456-.757.456-.273 0-.36-.062-.95-.65zm-4.175-.355c-.577-.577-.615-.637-.615-.95 0-.304.042-.377.456-.79.398-.4.495-.457.757-.457.273 0 .362.06.95.65.59.588.65.677.65.95 0 .26-.058.358-.456.756-.414.414-.487.456-.79.456-.314 0-.374-.038-.95-.615zm-3.467.19c-.13-.055-.47-.35-.762-.65-.482-.503-.527-.58-.527-.883 0-.302.043-.375.467-.8.453-.453.476-.465.8-.422.286.038.412.128.938.665.54.55.608.652.608.91 0 .25-.064.357-.45.746-.492.496-.72.588-1.074.434zm-3.004-.883c.002-.033.088-.217.192-.41.116-.218.19-.296.192-.205 0 .08-.07.265-.16.41-.158.257-.23.323-.224.205zm12.52-.826c-.588-.59-.65-.677-.65-.95 0-.262.06-.358.458-.757.416-.416.486-.456.795-.456.32 0 .375.037.95.612s.61.63.61.95c0 .31-.04.38-.456.796-.4.398-.495.456-.757.456-.273 0-.36-.06-.95-.65zm-4.14-.39c-.59-.59-.65-.678-.65-.95 0-.263.06-.36.457-.757.616-.618.83-.623 1.514-.04.606.513.84.852.84 1.21 0 .23-.072.347-.455.73-.4.398-.496.456-.758.456-.272 0-.36-.06-.95-.65zm-4.182-.36c-.566-.576-.608-.642-.608-.95 0-.3.044-.375.456-.788.398-.398.495-.456.757-.456.272 0 .36.06.95.65.584.583.65.68.65.943 0 .25-.066.362-.442.757-.413.433-.465.462-.798.462-.343 0-.382-.025-.965-.618zm-3.366.253c-.078-.02-.13-.062-.117-.09l.447-1.05c.232-.547.448-.994.48-.994.03 0 .182.14.337.312.36.398.376.71.057 1.15-.37.512-.835.77-1.203.672zm13.483-1.45c-.63-.602-.772-.89-.62-1.25.06-.14.286-.422.505-.626.326-.302.452-.37.686-.37.25 0 .36.072.88.58.55.54.594.604.594.905 0 .294-.044.366-.48.787-.407.394-.52.462-.766.462s-.36-.07-.8-.488zm-4.06-.32c-.59-.587-.65-.676-.65-.95 0-.26.06-.357.457-.755.416-.416.486-.457.795-.457.32 0 .375.036.95.61.574.576.61.632.61.95 0 .31-.04.38-.456.797-.398.398-.495.456-.757.456-.272 0-.36-.06-.95-.65zm-4.14-.39c-.59-.588-.65-.677-.65-.95 0-.26.058-.358.456-.756.396-.394.496-.455.752-.455.265 0 .364.067.95.64.604.588.655.662.655.95 0 .274-.053.363-.457.766-.398.4-.494.457-.756.457-.273 0-.362-.06-.95-.65zm-3.944-.115l-.393-.374.328-1.032c.418-1.312.444-1.32 1.38-.382.548.546.65.69.65.902 0 .348-.17.647-.558.98-.27.23-.39.28-.672.28-.303 0-.39-.042-.735-.374zm10.442-.94c-.128-.08-.436-.36-.683-.622-.607-.64-.615-.867-.05-1.463.476-.504.816-.647 1.14-.48.12.062.438.343.707.623.417.436.487.55.487.797 0 .245-.067.356-.45.75-.518.53-.79.625-1.152.396zm3.307-.39c-.468-.47-.533-.57-.533-.826 0-.243.064-.36.393-.708.432-.457.754-.632 1.035-.56.292.072 1.227 1.09 1.227 1.334 0 .308-.186.612-.594.97-.298.264-.422.323-.68.323-.284 0-.365-.05-.848-.534zm-7.93-.43c-.59-.588-.65-.677-.65-.95 0-.26.058-.358.456-.756.416-.416.486-.456.796-.456.32 0 .375.036.95.61.582.583.61.628.61.965 0 .33-.03.384-.462.796-.395.377-.507.442-.757.442-.264 0-.36-.066-.943-.65zm-4.152-.395c-.57-.586-.638-.685-.638-.95 0-.256.06-.356.456-.752.395-.395.495-.456.75-.456.266 0 .366.066.95.638.626.61.656.655.656.982 0 .31-.04.382-.425.767-.386.385-.457.425-.768.425-.327 0-.372-.03-.982-.655zm10.05-1.207c-.47-.47-.532-.568-.532-.828 0-.253.063-.36.45-.758.34-.353.517-.475.738-.51.276-.044.32-.02.843.486.754.73.798 1.004.257 1.604-.343.38-.632.54-.97.54-.208 0-.348-.095-.786-.534zm3.833.01c-.298-.286-.56-.6-.585-.695-.057-.224.07-.46.46-.868.542-.563.89-.52 1.56.198.427.457.508.69.345 1.002-.214.41-.81.887-1.11.887-.07 0-.372-.235-.67-.523zm-7.703-.12c-.63-.602-.772-.89-.62-1.25.06-.14.286-.422.506-.626.325-.303.45-.37.685-.37.252 0 .36.07.88.58.552.538.595.604.595.904 0 .295-.044.367-.48.787-.407.395-.52.463-.765.463-.247 0-.362-.07-.8-.49zm-4.305-.563c-.66-.66-.66-.66-.615-.995.037-.277.12-.407.472-.746.374-.36.47-.41.747-.41.288 0 .374.052.905.556.81.77.885 1.11.374 1.706-.325.378-.626.55-.972.55-.213 0-.357-.105-.913-.66zm10.043-1.276c-.692-.696-.705-.876-.108-1.473.36-.36.46-.418.717-.418.262 0 .358.06.793.494.418.418.494.537.494.767 0 .47-.71 1.16-1.19 1.16-.12 0-.357-.177-.706-.53zm3.495.046c-.668-.668-.68-.85-.087-1.44.592-.593.773-.582 1.44.086.47.468.503.524.456.762-.068.34-.705.978-1.047 1.046-.238.047-.294.013-.762-.454zm-7.393-.127c-.47-.47-.534-.57-.534-.83 0-.252.064-.36.45-.757.345-.356.517-.474.745-.51.287-.047.317-.03.88.535.773.773.78.907.088 1.6-.436.436-.53.495-.795.495-.266 0-.36-.06-.833-.534zm-3.54.156c-.13-.082-.438-.36-.685-.622-.378-.4-.45-.52-.45-.76 0-.238.07-.357.434-.74.68-.712.993-.68 1.812.177.418.44.488.554.488.8 0 .245-.067.357-.45.75-.518.53-.79.625-1.15.396zm9.647-1.396c-.065-.023-.32-.24-.566-.48-.61-.595-.615-.808-.03-1.392.564-.565.762-.566 1.353-.01.524.495.608.68.466 1.02-.104.245-.686.836-.826.836-.04 0-.12.015-.176.033-.057.018-.157.014-.22-.01zm-4.167-.642c-.673-.697-.678-.812-.064-1.426.607-.607.793-.614 1.39-.048.76.718.787.974.173 1.596-.35.352-.458.418-.696.418-.248 0-.348-.067-.804-.54zm-3.97-.15c-.475-.474-.535-.567-.535-.833 0-.264.06-.36.495-.795.69-.69.828-.684 1.59.077.76.762.768.898.077 1.59-.436.435-.53.494-.795.494-.267 0-.36-.058-.833-.532zm10.9.123c-.22-.224-.42-.473-.447-.55-.112-.32.498-.992.902-.992.137 0 .33.14.645.472.53.556.536.718.043 1.188-.437.42-.647.397-1.144-.117zm-5.13-1.603c-.606-.614-.612-.834-.033-1.406.578-.57.79-.564 1.402.04.38.378.45.49.45.725 0 .233-.068.346-.413.686-.58.575-.8.568-1.406-.043zm3.478-.04c-.538-.543-.55-.765-.058-1.217.192-.177.426-.322.52-.322.228 0 1.083.855 1.083 1.083 0 .095-.145.33-.322.52-.455.496-.684.484-1.222-.06zm-7.103-.152c-.58-.555-.68-.745-.564-1.055.116-.306.604-.784.903-.882.34-.112.59.023 1.11.59.554.606.547.778-.053 1.38-.608.606-.73.604-1.395-.033zm9.752-.174c-.177-.192-.323-.404-.323-.47 0-.067.146-.278.323-.47.426-.463.628-.463 1.077-.01.41.416.397.59-.07 1.01-.42.38-.61.367-1.007-.066zm-3.76-.88c-.065-.02-.302-.217-.527-.436-.514-.5-.536-.71-.118-1.146.47-.493.633-.487 1.19.043.587.56.607.732.14 1.18-.358.34-.5.416-.685.358zm-4.154-.547c-.507-.52-.587-.707-.427-1.012.153-.29.585-.697.85-.797.304-.114.503-.015.977.488.56.592.558.79-.008 1.354-.584.584-.796.58-1.392-.032zm6.605.108c-.188-.187-.342-.403-.342-.48 0-.154.706-.897.854-.897.053 0 .275.172.494.38.392.375.397.385.296.63-.12.29-.6.71-.812.71-.082 0-.303-.154-.49-.342zm2.33-.54c-.137-.142-.25-.294-.25-.337 0-.12.422-.5.555-.5.133 0 .617.47.617.6 0 .167-.33.494-.498.494-.096 0-.287-.116-.424-.257zm-3.66-.787c-.186-.188-.34-.415-.34-.505 0-.217.406-.67.713-.8.242-.1.254-.093.622.294.28.293.365.435.333.558-.055.21-.684.794-.855.794-.07 0-.283-.153-.47-.34zm-3.234-.262c-.576-.576-.59-.724-.12-1.186.47-.463.65-.45 1.185.078.526.52.55.725.13 1.165-.162.168-.392.33-.512.358-.19.045-.275-.01-.684-.415zm5.878.034c-.137-.142-.25-.31-.25-.376 0-.13.392-.538.517-.538.12 0 .576.5.576.633 0 .13-.39.538-.516.538-.043 0-.19-.115-.328-.256zm-3.957-1.076c-.437-.403-.45-.592-.07-1.01.42-.47.594-.48 1.01-.072.44.43.45.643.053 1.024-.45.433-.58.44-.993.057zm2.845-.037c-.257-.265-.263-.284-.15-.487.066-.116.215-.244.332-.285.185-.065.246-.042.485.19.15.146.274.3.274.343 0 .13-.41.517-.546.517-.07 0-.246-.124-.394-.276zm-.997-.996c-.137-.142-.25-.333-.25-.424 0-.167.332-.49.503-.49.13 0 .59.493.59.633 0 .13-.39.538-.515.538-.042 0-.19-.115-.327-.256z"/></svg>
